<?xml version="1.0" standalone="no"?>
<!DOCTYPE svg PUBLIC "-//W3C//DTD SVG 20010904//EN"
 "http://www.w3.org/TR/2001/REC-SVG-20010904/DTD/svg10.dtd">
<svg version="1.0" xmlns="http://www.w3.org/2000/svg"
 width="1600.000000pt" height="559.000000pt" viewBox="0 0 1600.000000 559.000000"
 preserveAspectRatio="xMidYMid meet">

<g transform="translate(0.000000,559.000000) scale(0.100000,-0.100000)"
fill="#000000" stroke="none">
<path d="M2450 5443 c-454 -46 -906 -219 -1290 -493 -211 -150 -450 -385 -602
-590 -121 -163 -237 -381 -331 -620 -71 -182 -104 -302 -138 -500 -64 -380
-46 -732 57 -1140 90 -354 275 -720 512 -1018 169 -211 449 -449 717 -607 174
-103 477 -238 605 -269 86 -21 326 -62 473 -81 296 -38 684 -5 977 84 52 16
122 36 155 44 81 21 380 155 485 219 249 150 540 403 713 619 138 171 290 415
371 593 85 187 164 443 200 647 28 167 41 432 27 606 -41 538 -178 936 -473
1374 -177 264 -400 484 -688 682 -254 174 -432 257 -765 357 -185 55 -281 73
-478 89 -118 10 -446 13 -527 4z m541 -58 c243 -18 334 -36 544 -107 401 -136
726 -338 1030 -643 408 -408 640 -861 747 -1460 20 -115 23 -162 23 -405 0
-221 -4 -297 -18 -385 -111 -660 -436 -1218 -957 -1641 -573 -466 -1360 -673
-2075 -548 -826 145 -1535 673 -1911 1424 -117 235 -174 401 -218 640 -41 227
-50 325 -49 565 0 244 9 329 58 553 184 828 793 1529 1610 1850 126 50 337
110 479 137 72 13 140 26 151 28 48 11 407 6 586 -8z"/>
<path d="M2855 4173 c-55 -13 -233 -112 -306 -172 -279 -223 -471 -658 -384
-866 7 -16 40 -63 75 -103 34 -41 60 -75 58 -76 -2 -2 -29 -22 -60 -45 -109
-79 -242 -256 -290 -387 -20 -53 -22 -79 -22 -244 -1 -170 1 -189 21 -233 81
-175 214 -249 385 -214 155 32 279 101 416 231 172 164 383 471 418 611 7 29
-13 58 -59 82 -24 12 -31 12 -45 1 -39 -32 -77 -81 -148 -193 -42 -66 -100
-149 -129 -185 -113 -138 -297 -297 -388 -335 -53 -22 -188 -20 -216 3 -33 26
-41 83 -30 202 14 140 32 217 70 293 94 186 215 299 392 368 43 16 87 35 98
42 38 23 40 75 8 139 -30 58 -59 68 -202 68 -104 0 -128 3 -146 18 -57 45 -42
200 33 366 52 114 123 213 226 317 118 118 196 161 301 167 67 4 68 4 75 -23
22 -86 -37 -214 -170 -374 -105 -125 -113 -148 -76 -208 38 -64 105 -86 157
-54 81 51 224 276 254 401 17 73 17 213 0 273 -18 61 -64 111 -116 126 -39 11
-161 13 -200 4z"/>
<path d="M15216 3604 c-170 -41 -332 -185 -398 -353 -19 -49 -22 -76 -22 -212
l-1 -155 43 -87 c51 -103 126 -188 222 -252 96 -64 160 -78 334 -73 134 3 145
5 208 35 159 75 259 184 315 344 21 61 25 91 25 179 -1 119 -17 192 -64 290
-103 212 -411 345 -662 284z m213 -194 c121 -20 203 -81 253 -186 41 -87 54
-169 40 -244 -24 -130 -92 -229 -190 -277 -52 -26 -66 -28 -172 -28 -109 0
-118 2 -168 29 -68 38 -116 92 -156 175 -28 59 -31 75 -30 156 0 70 5 102 23
145 51 123 138 202 251 226 71 16 73 16 149 4z"/>
<path d="M6003 3603 l-33 -4 0 -565 0 -564 366 0 366 0 -4 90 c-2 55 -8 94
-16 102 -10 10 -74 14 -250 18 l-237 5 4 120 c1 66 5 122 8 125 2 3 101 7 220
10 255 6 249 3 238 110 -4 36 -11 70 -16 75 -6 6 -101 12 -224 15 -138 3 -218
9 -225 16 -8 8 -9 46 -3 130 l8 119 248 3 247 2 0 94 c0 89 -1 94 -22 100 -25
6 -622 5 -675 -1z"/>
<path d="M7111 3603 c-22 -4 -23 -8 -18 -51 6 -47 148 -489 279 -869 l70 -203
128 0 129 0 22 58 c73 192 339 1008 339 1041 0 17 -11 20 -95 26 -98 8 -123 4
-130 -17 -2 -7 -49 -155 -105 -328 -121 -378 -144 -443 -157 -447 -9 -3 -154
423 -234 690 l-33 107 -86 -1 c-47 -1 -96 -4 -109 -6z"/>
<path d="M8593 3601 c-39 -3 -75 -10 -80 -14 -12 -13 -16 -436 -8 -794 l7
-313 363 0 363 0 7 74 c5 46 3 81 -4 93 -14 28 -64 33 -308 33 l-205 0 4 115
c2 76 7 118 16 127 10 10 72 14 235 18 l222 5 0 95 0 95 -228 5 c-188 4 -229
8 -237 20 -5 8 -10 59 -10 113 0 143 -11 137 249 137 125 0 221 4 240 11 l31
11 0 89 0 89 -292 -2 c-161 -1 -325 -4 -365 -7z"/>
<path d="M9690 3039 l0 -571 103 7 c56 4 104 9 106 11 2 2 8 135 12 294 4 160
11 300 14 311 6 16 9 18 21 8 17 -14 216 -279 369 -491 l99 -138 83 0 83 0 -2
568 -3 567 -101 3 -101 3 -5 -311 c-3 -228 -8 -314 -17 -323 -19 -18 -39 7
-381 471 l-120 162 -80 0 -80 0 0 -571z"/>
<path d="M11185 3600 l-160 -5 -7 -45 c-3 -25 -7 -64 -7 -86 l-1 -41 46 -7
c26 -3 87 -6 135 -6 84 0 89 -1 93 -22 3 -13 8 -221 11 -463 4 -242 8 -441 8
-441 1 -1 50 -5 110 -9 l107 -7 1 404 c1 387 6 508 23 525 4 4 64 10 132 12
l124 3 0 99 0 99 -227 -2 c-126 -1 -300 -5 -388 -8z"/>
<path d="M12770 3475 c-47 -74 -100 -150 -118 -168 l-33 -32 -24 30 c-14 17
-64 90 -111 163 l-86 132 -119 0 c-66 0 -119 -4 -119 -8 0 -5 68 -118 151
-253 83 -134 160 -258 171 -275 l19 -32 -139 -213 c-152 -235 -206 -328 -198
-337 4 -3 55 -8 115 -10 l109 -4 111 166 c62 91 116 166 121 166 17 0 89 -96
160 -212 l73 -120 113 4 c63 2 116 7 120 10 6 6 -112 207 -189 321 -52 78
-137 226 -137 239 0 6 67 117 149 247 164 261 185 298 173 305 -4 2 -57 8
-117 11 l-110 6 -85 -136z"/>
<path d="M13542 3593 c-7 -19 -9 -1100 -1 -1107 2 -2 50 -7 106 -11 l102 -7 5
33 c3 19 7 108 9 199 l2 165 110 7 c208 12 320 54 394 148 86 109 102 269 39
399 -33 69 -109 138 -172 156 -48 14 -349 34 -519 35 -55 0 -69 -3 -75 -17z
m505 -209 c54 -40 68 -70 68 -142 0 -55 -4 -73 -24 -99 -35 -47 -62 -54 -201
-51 l-125 3 -3 120 c-5 196 -2 199 150 193 88 -4 114 -8 135 -24z"/>
</g>
</svg>
