<svg width="132" height="16" viewBox="0 0 132 16" fill="none" xmlns="http://www.w3.org/2000/svg">
<path d="M4.13519 2.84495C3.36534 2.84495 2.72747 3.50498 2.72747 4.30156V5.78094H12.6255V8.62589H2.72747V11.6302C2.72747 12.4267 3.36534 13.0868 4.13519 13.0868H15.375V15.9317H4.13519C1.84764 15.9317 0 13.9972 0 11.6302V4.30156C0 1.93457 1.84764 0 4.13519 0H15.375V2.84495H4.13519Z" fill="black"/>
<path d="M29.294 0H32.3734L30.9657 2.84495L24.5209 15.9317L18.0762 2.84495L16.6684 0H19.7478L21.1556 2.84495L24.5209 9.67283L27.8863 2.84495L29.294 0Z" fill="black"/>
<path d="M36.9139 2.84495C36.1441 2.84495 35.5062 3.50498 35.5062 4.30156V5.78094H45.4043V8.62589H35.5062V11.6302C35.5062 12.4267 36.1441 13.0868 36.9139 13.0868H48.1538V15.9317H36.9139C34.6264 15.9317 32.7788 13.9972 32.7788 11.6302V4.30156C32.7788 1.93457 34.6264 0 36.9139 0H48.1538V2.84495H36.9139Z" fill="black"/>
<path d="M62.9966 0L65.746 0.0227593V15.9545L62.9966 13.7696L53.0985 5.87198V15.9545H50.349V0.0682793L53.0985 2.2532L62.9966 10.1508V0Z" fill="black"/>
<path d="M67.9413 0.0227593H83.3163V2.86771H77.0035V15.9545H74.2541V2.86771H67.9413V0.0227593Z" fill="black"/>
<path d="M84.9837 16V15.9545H85.0277L84.9837 16ZM100.381 15.9545V16L100.359 15.9545H100.381ZM100.425 0.0227593L94.4638 8.01138L100.403 15.9545H96.9273L92.7262 10.3329L88.525 15.9545H85.0497L90.9665 8.01138L85.0057 0.0227593H88.481L92.7042 5.6899L96.9273 0.0227593H100.425Z" fill="black"/>
<path d="M114.678 1.25178L114.7 1.27454C115.448 2.07112 115.91 3.14082 115.91 4.32432C115.91 6.05405 114.92 7.55619 113.49 8.23898C113.116 8.42105 112.72 8.53485 112.302 8.58037C112.258 8.58037 112.214 8.58037 112.17 8.58037V8.60313H104.802V15.9317H102.052V0H111.752C112.896 0 113.93 0.477952 114.678 1.25178ZM112.346 5.64438V5.62162C112.852 5.39403 113.182 4.87055 113.182 4.30156C113.182 3.77809 112.918 3.41394 112.764 3.25462C112.588 3.07255 112.258 2.84495 111.774 2.84495H104.802V5.78094H111.774C111.972 5.78094 112.17 5.73542 112.346 5.64438Z" fill="black"/>
<path d="M124.302 0C128.547 0 132 3.57326 132 7.96586C132 12.3585 128.547 15.9317 124.302 15.9317C120.056 15.9317 116.603 12.3585 116.603 7.96586C116.603 3.57326 120.056 0 124.302 0ZM124.302 13.0868C127.029 13.0868 129.251 10.7881 129.251 7.96586C129.251 5.14367 127.029 2.84495 124.302 2.84495C121.574 2.84495 119.352 5.14367 119.352 7.96586C119.352 10.7881 121.574 13.0868 124.302 13.0868Z" fill="black"/>
</svg>
